<svg xmlns="http://www.w3.org/2000/svg" version="1.1" xmlns:xlink="http://www.w3.org/1999/xlink" xmlns:svgjs="http://svgjs.com/svgjs" width="1024" height="1024"><svg width="1024" height="1024" viewBox="0 0 1024 1024" fill="none" xmlns="http://www.w3.org/2000/svg">
<rect width="1024" height="1024" fill="#1C2128"></rect>
<path fill-rule="evenodd" clip-rule="evenodd" d="M803.712 780.754C771.172 780.754 744.709 754.295 744.709 721.774C744.709 689.258 771.172 662.793 803.712 662.793C836.249 662.793 862.729 689.258 862.729 721.774C862.729 754.295 836.252 780.754 803.709 780.754H803.712ZM512.006 780.754C363.431 780.754 242.545 659.967 242.545 511.489C242.545 464.734 254.653 420.79 275.722 382.433H433.085C389.645 409.061 360.579 456.942 360.579 511.489C360.579 594.921 428.511 662.793 512.006 662.793H748C732.297 677.615 722.435 698.545 722.435 721.774C722.435 745.007 732.297 765.938 748 780.754H512.006V780.754ZM231.418 780.754C198.884 780.754 172.398 754.295 172.398 721.774C172.398 689.258 198.884 662.793 231.418 662.793H262.747C294.776 715.292 342.954 756.903 400.321 780.754H231.418V780.754ZM161.271 301.198C161.271 268.688 187.748 242.246 220.282 242.246C252.814 242.246 279.291 268.691 279.291 301.198C279.291 333.719 252.814 360.178 220.282 360.178C187.748 360.178 161.271 333.719 161.271 301.198ZM641.156 511.489C641.156 582.655 583.226 640.547 512.006 640.547C440.786 640.547 382.859 582.655 382.859 511.489C382.859 440.322 440.789 382.433 512.006 382.433C583.229 382.433 641.156 440.322 641.156 511.489ZM481.847 242.246H500.87H512.006L523.15 242.527C666.574 248.392 781.455 366.767 781.455 511.489C781.455 556.428 769.99 600.914 748.25 640.547H590.981C634.413 613.918 663.435 566.038 663.435 511.489C663.435 428.051 595.503 360.178 512.006 360.178H500.873H481.847H276.003C291.703 345.356 301.562 324.435 301.562 301.198C301.562 277.978 291.703 257.062 276.003 242.246H481.847V242.246ZM792.591 242.246C825.128 242.246 851.614 268.691 851.614 301.198C851.614 333.719 825.131 360.178 792.591 360.178H761.247C729.215 307.691 681.046 266.091 623.693 242.246H792.591ZM885 721.774C885 676.992 848.526 640.547 803.718 640.547H773.344C793.265 600.406 803.718 556.161 803.718 511.489C803.718 465.164 792.797 421.362 773.473 382.433H792.591C837.405 382.433 873.879 345.988 873.879 301.198C873.879 256.425 837.405 220 792.591 220H512.009H500.87H220.282C175.459 220 139 256.425 139 301.198C139 345.985 175.459 382.433 220.282 382.433H250.599C231.26 421.371 220.282 465.147 220.282 511.489C220.282 557.81 231.194 601.609 250.521 640.547H231.418C186.595 640.547 150.135 676.992 150.135 721.774C150.135 766.57 186.595 803 231.418 803H512.006H523.144H803.718C848.526 802.994 885 766.57 885 721.774Z" fill="white"></path>
</svg><style>@media (prefers-color-scheme: light) { :root { filter: none; } }
@media (prefers-color-scheme: dark) { :root { filter: none; } }
</style></svg>