<?xml version="1.0" standalone="no"?>
<!DOCTYPE svg PUBLIC "-//W3C//DTD SVG 20010904//EN"
 "http://www.w3.org/TR/2001/REC-SVG-20010904/DTD/svg10.dtd">
<svg version="1.0" xmlns="http://www.w3.org/2000/svg"
 width="1024.000000pt" height="1024.000000pt" viewBox="0 0 1024.000000 1024.000000"
 preserveAspectRatio="xMidYMid meet">
<metadata>
Created by potrace 1.14, written by Peter Selinger 2001-2017
</metadata>
<g transform="translate(0.000000,1024.000000) scale(0.100000,-0.100000)"
fill="#000000" stroke="none">
<path d="M0 5120 l0 -5120 5120 0 5120 0 0 5120 0 5120 -5120 0 -5120 0 0
-5120z m8014 2910 c190 -22 341 -96 481 -235 101 -101 157 -190 201 -320 22
-67 28 -103 32 -215 4 -116 1 -148 -17 -220 -51 -204 -174 -376 -349 -491
-138 -91 -245 -120 -464 -126 l-166 -5 50 -112 c102 -229 184 -512 224 -781
21 -142 29 -504 15 -661 -34 -356 -110 -627 -287 -1020 -4 -9 57 -13 223 -16
226 -4 229 -5 323 -37 230 -78 415 -245 503 -456 122 -290 60 -631 -156 -861
-108 -117 -232 -191 -392 -236 l-80 -23 -2910 -3 c-1976 -2 -2942 1 -3008 8
-199 21 -350 93 -492 235 -101 101 -157 191 -201 320 -22 67 -28 103 -32 215
-4 116 -1 148 17 220 74 292 294 518 581 595 44 12 118 19 232 22 l166 5 -50
112 c-102 229 -184 512 -224 781 -22 142 -29 504 -15 661 31 323 120 661 247
933 24 52 44 96 44 97 0 2 -85 4 -189 4 -270 0 -391 28 -549 126 -261 163
-406 463 -371 769 42 373 337 672 706 714 105 13 5800 13 5907 1z"/>
<path d="M2060 7805 c-254 -70 -431 -281 -447 -537 -7 -111 8 -190 58 -297 72
-155 229 -282 399 -322 77 -18 213 -16 285 5 211 62 377 231 426 436 21 85 17
223 -9 305 -57 185 -194 329 -373 392 -93 33 -253 41 -339 18z"/>
<path d="M2822 7743 c77 -96 130 -193 160 -298 33 -117 33 -328 0 -435 -40
-125 -125 -274 -196 -339 -14 -14 -26 -28 -26 -32 0 -5 582 -10 1293 -12 1437
-3 1319 2 1543 -72 226 -75 410 -190 590 -370 221 -220 349 -457 415 -765 33
-150 33 -439 1 -586 -44 -205 -117 -380 -228 -547 -104 -156 -230 -279 -449
-441 -18 -13 71 -15 771 -16 l791 0 51 102 c353 717 373 1537 55 2268 -282
649 -827 1175 -1483 1433 -193 75 -354 119 -590 160 -123 21 -148 21 -1443 24
l-1317 4 62 -78z"/>
<path d="M6245 7812 c6 -5 39 -21 75 -36 322 -138 696 -410 952 -692 97 -107
247 -301 305 -397 l37 -59 206 4 c196 4 209 6 290 34 191 67 319 198 386 394
14 40 19 84 19 165 0 136 -26 225 -97 331 -76 114 -161 180 -297 233 l-66 26
-910 3 c-505 1 -905 -1 -900 -6z"/>
<path d="M2728 6372 c-86 -153 -194 -451 -242 -664 -47 -213 -60 -336 -60
-583 0 -247 13 -370 60 -583 234 -1051 1085 -1874 2138 -2066 241 -45 290 -46
1603 -46 l1253 0 -63 78 c-76 95 -129 193 -159 297 -33 117 -33 328 0 435 40
125 125 274 196 339 14 14 26 28 26 32 0 5 -582 10 -1292 12 -1437 3 -1321 -2
-1544 72 -225 75 -412 192 -590 369 -220 221 -349 459 -415 766 -30 140 -33
428 -6 565 42 204 124 405 238 574 75 113 225 271 329 349 42 31 90 67 106 79
l29 22 -790 0 -790 1 -27 -48z"/>
<path d="M4980 6414 c-440 -56 -820 -320 -1015 -707 -95 -187 -138 -370 -138
-582 1 -786 700 -1394 1473 -1281 764 112 1263 853 1075 1596 -122 486 -515
858 -1008 956 -80 15 -317 26 -387 18z"/>
<path d="M2228 3610 c-230 -39 -406 -192 -484 -420 -14 -40 -19 -84 -19 -165
0 -136 26 -225 97 -331 76 -114 161 -180 297 -233 l66 -26 910 -3 c507 -1 905
1 900 6 -6 5 -44 23 -85 41 -239 104 -536 300 -753 499 -179 164 -374 393
-487 575 l-42 67 -177 -1 c-97 -1 -197 -5 -223 -9z"/>
<path d="M7947 3610 c-183 -29 -360 -159 -440 -323 -46 -95 -62 -163 -61 -272
1 -248 159 -469 395 -552 211 -74 450 -21 609 136 114 113 168 232 177 391 6
116 -11 199 -63 302 -46 91 -162 209 -249 255 -107 56 -252 81 -368 63z"/>
</g>
</svg>
